<svg xmlns="http://www.w3.org/2000/svg" viewBox="0 0 493.83 598.1"><defs><style>.cls-1{fill:#f8a800;}.cls-2{fill:#12100b;}.cls-3{fill:#fff;}</style></defs><title>agence-logo</title><g id="Calque_2" data-name="Calque 2"><g id="Calque_4" data-name="Calque 4"><path class="cls-1" d="M245.53,0h15.85c.41.07.81.17,1.22.19,1.9.12,3.79.21,5.69.31,7.08.39,14.11,1.17,21.12,2.21a236.62,236.62,0,0,1,36.47,8.42,240.48,240.48,0,0,1,162.57,178,227.56,227.56,0,0,1,3.75,22.45,173.41,173.41,0,0,1,1.39,18.55c0,.77.15,1.55.23,2.32v16.13a13.69,13.69,0,0,0-.21,1.49c-.06,1.85,0,3.71-.14,5.56-.5,7.3-1.26,14.57-2.38,21.8a240.29,240.29,0,0,1-225.31,203.1,11.82,11.82,0,0,0-1.35.22h-22a9.19,9.19,0,0,0-1.21-.22A239.79,239.79,0,0,1,181.81,470,241.21,241.21,0,0,1,37.89,347.14a233.55,233.55,0,0,1-20.26-59.47c-1.27-6.49-2.24-13-3.07-19.61-.65-5.14-.85-10.33-1.28-15.5-.11-1.33-.32-2.66-.49-4q0-8.06,0-16.13c.16-1.32.37-2.65.48-4,.52-6,.86-12,1.55-18a220.88,220.88,0,0,1,5.6-29.72A241.09,241.09,0,0,1,177.06,12.43,235.71,235.71,0,0,1,222.44,2Q233,.63,243.75.22C244.34.2,244.93.08,245.53,0Zm7.88,466.88c125,0,226.4-101.22,226.55-226.21C480.1,116.12,379.28,14,253.43,14S26.94,116,26.94,240.44C26.95,365.45,128.32,466.85,253.4,466.88Z"/><path class="cls-1" d="M440.27,318.75a77.44,77.44,0,0,0-8.08-19.13,167.46,167.46,0,0,0-20.43-27.85A313.87,313.87,0,0,0,382,242.6c-.37-.32-.73-.66-1.13-1l1.13-1c5.11-4.77,10.33-9.44,15.32-14.35a215.31,215.31,0,0,0,26.19-30.57,106.46,106.46,0,0,0,12.11-22c2.51-6.44,4.13-13.06,3.76-20a27,27,0,0,0-9-19.24,36.5,36.5,0,0,0-11.74-7,73.62,73.62,0,0,0-23.24-4.39,152.5,152.5,0,0,0-23.59.85c-1.69.18-3.38.42-5.18.65l.91,4a5.83,5.83,0,0,0,.66,0,160.24,160.24,0,0,1,19-1.44,91.86,91.86,0,0,1,24,2.34,40.66,40.66,0,0,1,14,6.16,23.08,23.08,0,0,1,9.05,12.47,30.91,30.91,0,0,1,.23,15.13,66.43,66.43,0,0,1-6.72,17.73A150.65,150.65,0,0,1,408.9,207.7a297.73,297.73,0,0,1-30.66,30.62,7.71,7.71,0,0,1-.67.47l-1-.82c-7.18-5.64-14.27-11.38-21.55-16.88-9.94-7.52-20.28-14.48-30.82-21.15a2.54,2.54,0,0,1-1.35-2.34c0-1.71-.17-3.42-.36-5.13-.87-8.2-1.64-16.41-2.7-24.58-1-7.71-2.34-15.37-3.54-23.06-.22-1.4-.48-2.8-.73-4.29l13-3.89-.76-4.06-13,3.83c-.1-.3-.17-.47-.21-.64-.75-3.44-1.46-6.88-2.25-10.31a291.67,291.67,0,0,0-12-39.85,156.94,156.94,0,0,0-13.9-28.24A75.37,75.37,0,0,0,273.73,42a41,41,0,0,0-9.81-6.76,27.37,27.37,0,0,0-17.7-2.41,32.67,32.67,0,0,0-12.78,5.85,61.4,61.4,0,0,0-13.74,14.44,130.23,130.23,0,0,0-13.35,24.46c-7.17,16.75-12.05,34.2-15.88,52-.49,2.25-.95,4.51-1.45,6.89l-2.07-.58a291.92,291.92,0,0,0-47.59-10.2,151.2,151.2,0,0,0-26.48-1.1,85.87,85.87,0,0,0-16.06,2.29,45,45,0,0,0-15.31,6.68,27.77,27.77,0,0,0-9.3,10.85c-2.82,6-3.21,12.2-2.27,18.61a59.34,59.34,0,0,0,4.73,15.49,128.34,128.34,0,0,0,16.13,26,4,4,0,0,1,.33.65l3.15-2.81c-.23-.33-.42-.63-.64-.92-1.13-1.53-2.29-3-3.4-4.58a108,108,0,0,1-12.77-22.39c-2.42-6-4.09-12.2-3.81-18.77a23.06,23.06,0,0,1,8.06-17.08,34.47,34.47,0,0,1,11.86-6.51c7.22-2.45,14.71-3.3,22.28-3.56a138.68,138.68,0,0,1,15.28.43,206.32,206.32,0,0,1,20.51,2.66,315.77,315.77,0,0,1,35.2,8.51l1.39.44c0,.36-.06.54-.09.72-1,5.89-2.06,11.77-2.87,17.68-1,7.29-1.85,14.61-2.62,21.93-.64,6.12-1.1,12.27-1.55,18.41a2.65,2.65,0,0,1-1.34,2.32A488.57,488.57,0,0,0,130.49,238c-.31.26-.65.5-1,.8l-8.14-7.36-2.82,3,7.79,7.12-1.09,1c-5.32,5-10.75,9.81-15.94,14.9a214.81,214.81,0,0,0-26.1,30.46,105.26,105.26,0,0,0-12.38,22.61c-2.46,6.46-4,13.1-3.51,20.09a27,27,0,0,0,9.58,19.23,40,40,0,0,0,14.79,7.71,86.7,86.7,0,0,0,24.15,3.27,155.69,155.69,0,0,0,18.72-1c7.1-.75,14.13-1.89,21.12-3.28A344,344,0,0,0,189.1,348c.34-.1.69-.15,1.11-.24.11.44.22.79.29,1.15a336.28,336.28,0,0,0,9.45,35.39,192.5,192.5,0,0,0,14.45,33.78A91.56,91.56,0,0,0,227,435.85a48.6,48.6,0,0,0,10.25,8.58,42.45,42.45,0,0,1-5.89-5.46,41.46,41.46,0,0,1-8.62-15.22q-.7-1-1.38-2.11A152.15,152.15,0,0,1,208,394.53a307.11,307.11,0,0,1-13.56-47,8.12,8.12,0,0,1-.08-1.1c.37-.14.67-.26,1-.35q2.91-.95,5.8-1.93.24-2.26.4-4.53c-2.66.92-5.33,1.82-8,2.69-2.06-6.29-7.88-49.14-7.62-56.2q8.28,5.29,16.71,10.29.11-2.32.27-4.64-8.14-4.87-16.14-10a2.87,2.87,0,0,1-1.49-2.55c-.29-6.39-.67-12.77-.91-19.15s-.32-12.6-.41-16.52c0-13.54.23-24.7.78-35.86.05-1.11.22-2.22.18-3.33a1.92,1.92,0,0,1,1.13-1.86c4.7-2.88,9.34-5.85,14.06-8.69q25-15.06,51.34-27.64a2.94,2.94,0,0,1,2.83,0,622.18,622.18,0,0,1,63.4,34.51,2.81,2.81,0,0,1,1.5,2.53c.16,3.47.41,6.94.57,10.41q1,20.9.53,41.82c-.2,8.57-.72,17.12-1,25.69a1.91,1.91,0,0,1-1.15,1.71q-6,3.55-11.89,7.13a48.49,48.49,0,0,1-.08,5c4.13-2.45,8.24-4.94,12.32-7.49,1,3-5.17,50.57-7,54.9a71.59,71.59,0,0,1-8.27-2.65q.12,2.2.24,4.39c1.58.56,3.16,1.12,4.75,1.66l2.56.9c-1.17,6.37-2.74,12.58-4.23,18.82l4,1,4.27-18.5c.55.15,1,.25,1.42.39,9.48,3,19.07,5.69,28.77,7.92a244.73,244.73,0,0,0,32.17,5.35,141.22,141.22,0,0,0,23,.4,80.81,80.81,0,0,0,14.8-2.31,42.93,42.93,0,0,0,16-7.45,27.15,27.15,0,0,0,10.66-19.53A40.67,40.67,0,0,0,440.27,318.75ZM180.66,205.94a628.59,628.59,0,0,0,.39,72,483.4,483.4,0,0,1-48.38-36.37A488.42,488.42,0,0,1,180.66,205.94ZM184,309.5c.68,5.42,1.41,10.83,2.26,16.23.88,5.62,1.94,11.22,2.91,16.83.05.31.08.62.14,1-2.57.77-5.08,1.55-7.6,2.28a313.19,313.19,0,0,1-32.54,7.71,204,204,0,0,1-20.65,2.66,137.83,137.83,0,0,1-14.72.43c-7.66-.26-15.24-1.08-22.56-3.56A35,35,0,0,1,79.83,347a23,23,0,0,1-8.43-16.32c-.51-5.95.74-11.61,2.69-17.15a94.35,94.35,0,0,1,11.1-21.24,204.77,204.77,0,0,1,23-27.84c6.47-6.71,13.28-13.06,20.29-19.2.31-.27.64-.53,1.06-.87,1.9,1.6,3.69,3.13,5.5,4.64a494.57,494.57,0,0,0,44.69,33,10,10,0,0,0,.93.61,1.7,1.7,0,0,1,.91,1.59c.26,3.42.52,6.84.86,10.24C182.89,299.48,183.41,304.5,184,309.5Zm1.53-111.66c-.67-4.66,4.55-47.6,6.74-55.89,5.24.55,50.71,18.08,55.4,21.4A615,615,0,0,0,185.56,197.84Zm68.58-37.51a2.89,2.89,0,0,1-2.72,0,492.5,492.5,0,0,0-57-22.21c-.43-.14-.85-.32-1.38-.52.54-2.63,1.05-5.21,1.61-7.78A301,301,0,0,1,206,89.51a159.48,159.48,0,0,1,13.3-28.37,76,76,0,0,1,11.43-14.82,37.39,37.39,0,0,1,11.06-7.81,23.09,23.09,0,0,1,19.39,0,36.37,36.37,0,0,1,10,6.74,73.37,73.37,0,0,1,12.4,15.46A158.29,158.29,0,0,1,297,88.57a297.11,297.11,0,0,1,11.66,39.65c.64,2.84,1.23,5.7,1.84,8.55.07.31.07.63.12,1l-4.88,1.65A508.26,508.26,0,0,0,254.14,160.33Zm64.32,35.82a.21.21,0,0,1-.14,0,4,4,0,0,1-.5-.24,616,616,0,0,0-60.13-32.72,501.91,501.91,0,0,1,53.77-21.31A499.51,499.51,0,0,1,318.6,196C318.52,196.1,318.5,196.14,318.46,196.15Zm56,45.45a491.65,491.65,0,0,1-51,37.73,614,614,0,0,0-.1-75.06A501.27,501.27,0,0,1,374.43,241.6ZM437,335.69a23.19,23.19,0,0,1-9.73,14.22,41.2,41.2,0,0,1-13.95,6,92.47,92.47,0,0,1-23.86,2.29,185.47,185.47,0,0,1-29.4-3,330.71,330.71,0,0,1-43.31-10.93l-1.19-.41c.12-.8.22-1.61.37-2.41,1.67-8.83,3.11-17.69,4.13-26.62.93-8.1,1.7-16.21,2.53-24.32.17-1.66.34-3.32.41-5a1.89,1.89,0,0,1,1-1.65c6-4,12-7.91,17.88-12q18-12.49,34.72-26.65c.31-.27.64-.52,1.09-.88,3,2.64,5.87,5.17,8.71,7.76a271.25,271.25,0,0,1,28.24,29.5,136.07,136.07,0,0,1,16.73,25.34A62.33,62.33,0,0,1,437,323,31,31,0,0,1,437,335.69Z"/><path class="cls-1" d="M305.17,373c.5,8.11.94,16.21,1.21,24.3a12.39,12.39,0,0,0-1.21-24.3Z"/><path class="cls-1" d="M335.27,131a12.42,12.42,0,1,1,12.44,12.46A12.43,12.43,0,0,1,335.27,131Z"/><path class="cls-1" d="M118.5,218.54a12.42,12.42,0,1,1-12.41-12.47A12.41,12.41,0,0,1,118.5,218.54Z"/><path class="cls-2" d="M287.07,395.61l-5.71-14-17.78-10.63-14.93-6.5-16.1-4-.14-13.17-14.49-.44-.88-9.66a44.6,44.6,0,0,0,10.54-11.41c4.39-7,8.34-25.9,8.34-25.9s1.32,5.71,7,0,8.78-21.55,7.46-25.94-6.37-3-6.37-3,7.46-33.36,10.54-42.14c0,0-2.85-12.73-13-14.93,0,0,3.29-11.85,13-8.34,0,0-4.17-4-14.27,2.2,0,0,2-15.37,13.83-16.24,0,0-11.63-1.32-18.22,8.78,0,0-2.41-22-40.94-23.6,0,0,10.87-3.62,28,0,0,0-30-27.33-72.44,3.62l2.63-8.23s-26.37,22.73-12.1,41.67c.29.38,2.9,5.66,3.21,6a17,17,0,0,0-7.58,9.22l8.56,29.34s-2.41-4.06-5.49-1.43-5.77,25.49-.88,30.29a4.06,4.06,0,0,0,4.59.76c.43,4.78.68,8.79,1.11,13.57s-.28,10,1.32,14.57c1.55,4.44,3.64,6.23,5.93,10.17l-.22,8.78-15.56-.22-2.44,9.88s-30.51-3.07-37.75,4.17-32.27,23-33.58,31.61S57,398.24,57.69,402.85,55.06,414.71,51.77,416s-8.56,23-8.56,23v11.19S31,436.11,31,432.16c0,0-4.94-1.32-5.93.66s-3.62,11.85,0,16.46l5.27,12.51s-12.84-.33-17.45-2c0,0-4.94,1.65-4.94,4.28s2,5.27,0,6.91-5.6,2.63-5.93,5.27,2,4.94,1.65,6.91-4.28,2.3-3.62,5.6,5.27,7.57,4.61,8.89-2.78,6.26-1.39,7.9a68.51,68.51,0,0,0,8,7.44v2.78C9.71,520,2.65,531.9,2.83,533.57c.21,2,6.13,8.56,8.11,12.18s3.62,6.91,8.89,5.93,16.13.66,20.74,2.3a120.4,120.4,0,0,0,11.79,3.21l13.23,1.69,9.66-1.69-9.66,3.23H53.71l1,2.45.33,12.51,7.9,8.89.33,13.83H245.37L245,576s11.3-16.68,11.74-18.44,4.83-14.93,4.83-14.93l6.91-18.44s1.87-20.63,1.87-22S275,491.09,275,491.09l5.27-11.19,4-13.17,3.29-10.54,1.32-15.37-.22-14.49,1.54-9.44.22-8.56Z"/><path class="cls-3" d="M278.09,374.46l-4.34,10.16s-4.13,7-4.93,8.19-6.86,8.14-6.86,8.14-16.19,8.18-16.59,8.87c-.19.34-7.91,5.78-11.68,10.49a60.33,60.33,0,0,0-6.24,9.29c-.71,1.65-1.64,4.83-.1,11.18.51,2.11,1,1.48.62,6.12s-.67,8.15-.67,8.15,9.31,17.6,10.09,19.31,8.3,17.9,9.32,19.81,6.68,10.53,6.68,10.53l5.53,9.73,13.65,18.84L288.3,397.49,280.71,374Z"/><path class="cls-2" d="M426.63,385.7s-30.92-10.43-24-86.37c0,0,2.61,50.48,20.47,68-2.65-2.61-4.24-8-5.49-11.33-5-13.2-6.17-27.49-5.71-41.5,1-30.63,16-68.58-5.42-95.72-6.32-8-16.4-13.62-26.07-16.52,0,0,15.68-6.08,34.4,19.57,0,0-13.07-40.64-55.31-26.16,0,0,11.76-10.54,23.08-12.29,0,0-31.79-2.63-40.94,34.24a17.3,17.3,0,0,0-2.29-.82c0,.1,0,.21,0,.31-.47,10.28-5.18,23-13.59,29.65-.12,2.58-.11,5.16,0,7.75.94,7.65,2.33,15.24,3.51,22.86a288.68,288.68,0,0,1,3.25,44.23c0,22-2,44-1.77,66h31.49s7.84-14.51,7.84-23.4c0,0,3.27,18.44,8.49,25s27.44,48.4,27.44,48.4,9-45.3-5.14-70.56C405.57,373.85,415.66,386.18,426.63,385.7Z"/><path class="cls-2" d="M275.17,231.35s-13.14,21.1-3.51,58.22c1.68,6.46,3.08,12.28,4.16,17.56,13.9,4.79,25.34,16.39,28.33,31.51.48,2.42,1,4.82,1.56,7.22l38.83-118.41s-25.16-32.26-64.35-11.07c0,0,18.06-3,22.21-2.58,0,0-32.77,6-37.85,26.31C264.55,240.12,271,232.73,275.17,231.35Z"/><path class="cls-2" d="M324.93,216.24s3.5-15.93,20.6-7-1.94,21.38-1.94,21.38Z"/><path class="cls-2" d="M291.91,375.75V361.92s-6.64-9-7.52-13.42-2.58-16-2.58-16-14,5.27-13.61-32.49c0,0,2.2-8.34,5.71-5.71s.44-29.85.44-29.85l6.37-24.15s11.85-11,13.61-11.41,17.78-.44,17.78-.44l16.68,2.63,19.32,4.39,7.9,12.29L361.27,258l2.2,13.92v22.41s6.59-2.63,8.34,2.2-2.47,35.52-10.76,32.94c0,0-1.58,18.25-4.26,24.38C354.33,359.47,345,368.5,345,368.5l1,11.94,16.72-3.6,6.91,11.41s14.49,3.07,15.8,3.51,14,7.2,14,7.2L408.24,415s7.46,21.07,7.9,22.39,6.15,13.61,8.78,16.24,8.34,7.9,8.34,7.9l5.93,7.9s6.15-4.88,7.46-4.72c1.57.2,3.4,2.79,4.35,3.88s2.65,2.48,2.85,4.13c.19,1.48-.87,3-1.44,4.34a28.26,28.26,0,0,1,4.88-.05c1.85.68,2.84,2.92,3.26,4.7.38,1.61-.23,3.92.77,5,1.18,1.34,3,1.62,4.36,2.68,1.68,1.29,1.54,3,1.54,4.92,0-.9,4,.87,4.3,1.22,1.61,1.69.55,4.8.41,6.82-.19,2.77,1.24,7.45-1,9.61-1.1,1-3.28,1.7-4.66,2.43L471,530.6s-1.15,2,.33,5.1,6.75,11,6.75,11l-3,6.75-5.93,5.1-7.74,2.14-5.6,3.13-23.54,3.79-8.56,1-5.1-1.32-1.53,30.78H296.74l1.32-31.17-7.9-7s-14.93-15.8-16.24-18S262.5,528.3,260.74,523,248,499.76,248,499.76l-7.9-19.32-10.54-25.9s1.76-15.8,0-17.56.88-7.9,2.63-11,14.49-12.73,14.49-12.73l15.8-6.59,13.61-14.49,7.24-18.92Z"/><circle class="cls-3" cx="169.24" cy="271.21" r="13.92"/><circle class="cls-3" cx="213.85" cy="274.03" r="13.92"/><circle class="cls-3" cx="301.98" cy="301.66" r="13.68" transform="translate(-9.84 10.19) rotate(-1.9)"/><circle class="cls-3" cx="343.25" cy="301.66" r="13.68" transform="translate(-9.82 11.56) rotate(-1.9)"/><path class="cls-3" d="M277.38,347.46a102.84,102.84,0,0,0,24.84,21.64s-13.22-4.27-26.49-17.65C272,347.63,277.38,347.46,277.38,347.46Z"/><polygon class="cls-3" points="147.02 320.98 161.58 332.36 144.13 322.48 147.02 320.98"/><path class="cls-3" d="M289.81,565.87A201.6,201.6,0,0,1,311,573.48c14.93,6.59-21.23-11.63-21.23-11.63Z"/><path class="cls-3" d="M274.52,274"/><path class="cls-3" d="M327.81,210.49s-2.29,1.69,1.55,8.28c1,1.79-6.91-1.25-6.09-8.28s13-8.84,13-8.84l7.27,6.64s3.59,1.09,3.43,6.36,3.79-5.49-3.62-10.4S327.81,210.49,327.81,210.49Z"/><polygon class="cls-3" points="266.3 532.05 255.82 513.13 265.32 536.33 266.3 532.05"/><path class="cls-3" d="M180.37,267.83s7.24-3.62,13.17-2c0,0-4.61-3.82-13.17-.43S180.37,267.83,180.37,267.83Z"/><path class="cls-3" d="M314.16,297.71s5.35-5.53,14.09-1.67c0,0-3.67-6.31-14.57-1.93C303.64,298.14,314.16,297.71,314.16,297.71Z"/><path class="cls-3" d="M43.21,450.27S57.56,464,57.78,464.61s2.41,7,3.51,9.44,8.34,4.61,8.34,4.61-7-3.73-8.56-8.78-2.63-8.34-7-12.29-12.29-12.07-12.29-12.07Z"/><polygon class="cls-3" points="439.19 469.47 428.08 477.56 439.19 464.39 439.19 469.47"/><path class="cls-3" d="M467.37,514.87l-.66-3.84.66-5.38L465,508.51l-2.52-2.85.77,5.27s-3.07,4.72-18.14,12.62a14.72,14.72,0,0,0,3.54-.55s9.22-2.27,14.6-8.38l1.76-1.83,6.37,20,.88-9Z"/></g></g></svg>